<svg id="Gmail_icon__2020_" data-name="Gmail_icon_(2020)" xmlns="http://www.w3.org/2000/svg" width="31.175" height="23.387" viewBox="0 0 31.175 23.387">
  <path id="Path_9346" data-name="Path 9346" d="M54.126,76.359h4.96V64.314L52,59V74.233a2.125,2.125,0,0,0,2.126,2.126" transform="translate(-52 -52.971)" fill="#4285f4"/>
  <path id="Path_9347" data-name="Path 9347" d="M120,76.359h4.96a2.125,2.125,0,0,0,2.126-2.126V59L120,64.314" transform="translate(-95.91 -52.971)" fill="#34a853"/>
  <path id="Path_9348" data-name="Path 9348" d="M120,44.115v9.211l7.085-5.314V45.177a3.188,3.188,0,0,0-5.1-2.551" transform="translate(-95.91 -41.983)" fill="#fbbc04"/>
  <path id="Path_9349" data-name="Path 9349" d="M72,57.211V48l8.5,6.377L89,48v9.211l-8.5,6.377" transform="translate(-64.915 -45.868)" fill="#ea4335"/>
  <path id="Path_9350" data-name="Path 9350" d="M52,45.177v2.834l7.085,5.314V44.115L57.1,42.627A3.188,3.188,0,0,0,52,45.177" transform="translate(-52 -41.983)" fill="#c5221f"/>
</svg>
