<svg xmlns="http://www.w3.org/2000/svg" width="161.48" height="52.434" viewBox="0 0 161.48 52.434">
  <g id="Google_2015_logo" transform="translate(-4.44 -3)">
    <path id="Path_9318" data-name="Path 9318" d="M98.309,38.487A13.53,13.53,0,1,1,84.78,25,13.321,13.321,0,0,1,98.309,38.487Zm-5.923,0c0-4.852-3.521-8.173-7.607-8.173s-7.607,3.32-7.607,8.173c0,4.8,3.521,8.173,7.607,8.173S92.387,43.285,92.387,38.487Z" transform="translate(-26.185 -8.622)" fill="#ea4335"/>
    <path id="Path_9319" data-name="Path 9319" d="M146.309,38.487A13.53,13.53,0,1,1,132.78,25,13.321,13.321,0,0,1,146.309,38.487Zm-5.923,0c0-4.852-3.521-8.173-7.607-8.173s-7.607,3.32-7.607,8.173c0,4.8,3.521,8.173,7.607,8.173S140.387,43.285,140.387,38.487Z" transform="translate(-44.997 -8.622)" fill="#fbbc05"/>
    <path id="Path_9320" data-name="Path 9320" d="M193.085,25.815V50.028c0,9.96-5.874,14.028-12.818,14.028a12.844,12.844,0,0,1-11.955-7.948l5.156-2.146a7.45,7.45,0,0,0,6.792,4.786c4.445,0,7.2-2.742,7.2-7.9V48.9h-.207a9.183,9.183,0,0,1-7.1,3.065c-6.744,0-12.922-5.874-12.922-13.432,0-7.613,6.178-13.536,12.922-13.536a9.346,9.346,0,0,1,7.1,3.016h.207v-2.2h5.625ZM187.88,38.536c0-4.749-3.168-8.221-7.2-8.221-4.086,0-7.51,3.472-7.51,8.221,0,4.7,3.423,8.124,7.51,8.124C184.712,46.66,187.88,43.236,187.88,38.536Z" transform="translate(-63.802 -8.622)" fill="#4285f4"/>
    <path id="Path_9321" data-name="Path 9321" d="M221.277,3V42.525H215.5V3Z" transform="translate(-82.72)" fill="#34a853"/>
    <path id="Path_9322" data-name="Path 9322" d="M249.114,42.922l4.6,3.065a13.424,13.424,0,0,1-11.237,5.977A13.2,13.2,0,0,1,229.09,38.477c0-8.02,5.771-13.487,12.721-13.487,7,0,10.422,5.57,11.541,8.58l.614,1.532-18.029,7.467a6.864,6.864,0,0,0,6.537,4.086,7.7,7.7,0,0,0,6.64-3.734Zm-14.15-4.852,12.052-5a5.222,5.222,0,0,0-5-2.858A7.4,7.4,0,0,0,234.964,38.07Z" transform="translate(-88.046 -8.618)" fill="#ea4335"/>
    <path id="Path_9323" data-name="Path 9323" d="M20.4,23.962v-5.4H38.6a17.892,17.892,0,0,1,.27,3.259c0,4.051-1.107,9.061-4.677,12.63-3.472,3.615-7.907,5.543-13.783,5.543A20.04,20.04,0,0,1,.36,20.232,20.04,20.04,0,0,1,20.409.47,18.831,18.831,0,0,1,33.951,5.916l-3.81,3.81A13.764,13.764,0,0,0,20.4,5.87,14.176,14.176,0,0,0,6.23,20.232,14.176,14.176,0,0,0,20.4,34.6a13.221,13.221,0,0,0,9.979-3.954,11.192,11.192,0,0,0,2.926-6.685Z" transform="translate(4.08 2.67)" fill="#4285f4"/>
  </g>
</svg>
