<svg id="Google_Meet-Logo.wine" xmlns="http://www.w3.org/2000/svg" width="28.425" height="23.387" viewBox="0 0 28.425 23.387">
  <path id="Path_9354" data-name="Path 9354" d="M49.5,24.806l2.771,3.167L56,30.354l.65-5.529L56,19.42l-3.8,2.092Z" transform="translate(-33.421 -13.112)" fill="#00832d"/>
  <path id="Path_9355" data-name="Path 9355" d="M0,49.474v4.71a1.948,1.948,0,0,0,1.949,1.949h4.71l.974-3.56-.974-3.1L3.427,48.5Z" transform="translate(0 -32.746)" fill="#0066da"/>
  <path id="Path_9356" data-name="Path 9356" d="M6.659,0,0,6.659l3.427.974,3.232-.974L7.617,3.6Z" fill="#e94235"/>
  <path id="Path_9357" data-name="Path 9357" d="M6.659,20.5H0V30.57H6.659Z" transform="translate(0 -13.841)" fill="#2684fc"/>
  <path id="Path_9358" data-name="Path 9358" d="M40.672,8.217l-4.255,3.489V22.639l4.275,3.5a.975.975,0,0,0,1.575-.77V8.97A.976.976,0,0,0,40.672,8.217ZM29.92,17.091v5.035H20.5v6.659H34.467a1.948,1.948,0,0,0,1.949-1.949v-4.2Z" transform="translate(-13.841 -5.397)" fill="#00ac47"/>
  <path id="Path_9359" data-name="Path 9359" d="M34.467,0H20.5V6.659h9.42v5.035l6.5-5.382V1.949A1.948,1.948,0,0,0,34.467,0Z" transform="translate(-13.841)" fill="#ffba00"/>
</svg>
