<svg id="Google_Translate_logo" xmlns="http://www.w3.org/2000/svg" xmlns:xlink="http://www.w3.org/1999/xlink" width="28.426" height="28.431" viewBox="0 0 28.426 28.431">
  <defs>
    <linearGradient id="linear-gradient" y1="0.5" x2="1" y2="0.5" gradientUnits="objectBoundingBox">
      <stop offset="0" stop-color="#fff" stop-opacity="0.2"/>
      <stop offset="1" stop-color="#fff" stop-opacity="0.02"/>
    </linearGradient>
  </defs>
  <path id="Path_9360" data-name="Path 9360" d="M302.058,223.124a1.882,1.882,0,0,0,1.891-1.863v-19a1.882,1.882,0,0,0-1.891-1.863H283.6l7.408,22.724Z" transform="translate(-275.523 -194.693)" fill="#fff"/>
  <path id="Path_9361" data-name="Path 9361" d="M302.058,201.254a1.044,1.044,0,0,1,.735.3.988.988,0,0,1,.3.706v19a.977.977,0,0,1-.3.706,1.044,1.044,0,0,1-.735.3H291.628l-6.852-21.015h17.281m0-.854H283.6l7.408,22.724h11.05a1.882,1.882,0,0,0,1.891-1.863v-19A1.882,1.882,0,0,0,302.058,200.4Z" transform="translate(-275.523 -194.693)" fill="#f4f4f4"/>
  <path id="Path_9362" data-name="Path 9362" d="M482.3,809.8l1.749,5.368,4.861-5.368Z" transform="translate(-468.564 -786.737)" fill="#9fd4f5"/>
  <path id="Path_9363" data-name="Path 9363" d="M576.637,376.713V375.6h-5.368v-1.8h-1.743v1.8H566.1v1.114h6.818a9.852,9.852,0,0,1-1.957,3.44c-1.393-1.649-1.4-2.184-1.4-2.184h-1.447s.06.8,2.013,3.093a13.773,13.773,0,0,1-1.116,1.034l.444,1.39s.672-.578,1.512-1.47c.843.914,1.931,2.014,3.338,3.324l.914-.914c-1.507-1.367-2.612-2.452-3.423-3.324a10.1,10.1,0,0,0,2.426-4.392h2.409v0Z" transform="translate(-549.978 -363.154)" fill="#607988"/>
  <path id="Path_9364" data-name="Path 9364" d="M1.891,0A1.9,1.9,0,0,0,0,1.894V21.175a1.9,1.9,0,0,0,1.891,1.891H20.349L12.941,0H1.891Z" fill="#4285f4"/>
  <path id="Path_9365" data-name="Path 9365" d="M534.3,200.4h11.318a1.882,1.882,0,0,1,1.891,1.863v11.4Z" transform="translate(-519.083 -194.693)" fill="url(#linear-gradient)"/>
  <path id="Path_9366" data-name="Path 9366" d="M131.337,254.658a2.43,2.43,0,0,1-2.594,2.142,2.854,2.854,0,0,1,0-5.707,2.6,2.6,0,0,1,1.8.692l1.173-1.128a4.3,4.3,0,0,0-2.976-1.156,4.443,4.443,0,1,0,0,8.886,4.1,4.1,0,0,0,4.266-4.346,3.957,3.957,0,0,0-.105-.906h-4.158v1.521Z" transform="translate(-120.76 -242.394)" fill="#eee"/>
</svg>
