<svg id="Google_Drive_icon__2020_" data-name="Google_Drive_icon_(2020)" xmlns="http://www.w3.org/2000/svg" width="26.176" height="23.387" viewBox="0 0 26.176 23.387">
  <path id="Path_9340" data-name="Path 9340" d="M1.979,57.153l1.154,1.994a2.723,2.723,0,0,0,.989.989L8.246,53H0a2.716,2.716,0,0,0,.36,1.349Z" transform="translate(0 -37.109)" fill="#0066da"/>
  <path id="Path_9341" data-name="Path 9341" d="M13.088,8.336,8.965,1.2a2.723,2.723,0,0,0-.989.989L.36,15.382A2.717,2.717,0,0,0,0,16.732H8.246Z" transform="translate(0 -0.84)" fill="#00ac47"/>
  <path id="Path_9342" data-name="Path 9342" d="M63.921,60.136a2.723,2.723,0,0,0,.989-.989l.48-.825,2.294-3.973A2.716,2.716,0,0,0,68.044,53H59.8l1.755,3.448Z" transform="translate(-41.868 -37.109)" fill="#ea4335"/>
  <path id="Path_9343" data-name="Path 9343" d="M34.023,7.5,38.146.36A2.636,2.636,0,0,0,36.8,0H31.249A2.791,2.791,0,0,0,29.9.36Z" transform="translate(-20.935 0)" fill="#00832d"/>
  <path id="Path_9344" data-name="Path 9344" d="M27.558,53H17.873L13.75,60.136a2.636,2.636,0,0,0,1.349.36H30.331a2.791,2.791,0,0,0,1.349-.36Z" transform="translate(-9.627 -37.109)" fill="#2684fc"/>
  <path id="Path_9345" data-name="Path 9345" d="M52.57,8.786l-3.808-6.6a2.723,2.723,0,0,0-.989-.989L43.65,8.336l4.842,8.4h8.231a2.716,2.716,0,0,0-.36-1.349Z" transform="translate(-30.562 -0.84)" fill="#ffba00"/>
</svg>
