<svg xmlns="http://www.w3.org/2000/svg" width="24.947" height="24.5" viewBox="0 0 24.947 24.5">
  <g id="menu-de-puntos" transform="translate(0 -2.471)">
    <g id="Group_13051" data-name="Group 13051" transform="translate(0 2.471)">
      <path id="Path_9329" data-name="Path 9329" d="M3.767,2.471A2.917,2.917,0,1,0,6.684,5.388,2.92,2.92,0,0,0,3.767,2.471Z" transform="translate(-0.773 -2.471)" fill="#4285f4"/>
      <path id="Path_9330" data-name="Path 9330" d="M108.286,2.471A2.917,2.917,0,1,0,111.2,5.388,2.92,2.92,0,0,0,108.286,2.471Z" transform="translate(-95.851 -2.471)" fill="#ea4335"/>
      <path id="Path_9331" data-name="Path 9331" d="M214.5,8.305a2.917,2.917,0,1,0-2.917-2.917A2.921,2.921,0,0,0,214.5,8.305Z" transform="translate(-192.467 -2.471)" fill="#fbbc05"/>
      <path id="Path_9332" data-name="Path 9332" d="M2.918,111.783A2.917,2.917,0,1,0,0,108.866,2.92,2.92,0,0,0,2.918,111.783Z" transform="translate(0 -96.602)" fill="#4285f4"/>
      <path id="Path_9333" data-name="Path 9333" d="M107.442,111.783a2.917,2.917,0,1,0-2.917-2.917A2.92,2.92,0,0,0,107.442,111.783Z" transform="translate(-95.083 -96.602)" fill="#34a853"/>
      <path id="Path_9334" data-name="Path 9334" d="M213.65,111.783a2.917,2.917,0,1,0-2.918-2.917A2.92,2.92,0,0,0,213.65,111.783Z" transform="translate(-191.696 -96.602)" fill="#ea4335"/>
      <path id="Path_9335" data-name="Path 9335" d="M3.657,209.108a2.917,2.917,0,1,0,2.917,2.917A2.921,2.921,0,0,0,3.657,209.108Z" transform="translate(-0.672 -190.442)" fill="#fbbc05"/>
      <path id="Path_9336" data-name="Path 9336" d="M108.182,209.108a2.917,2.917,0,1,0,2.917,2.917A2.921,2.921,0,0,0,108.182,209.108Z" transform="translate(-95.755 -190.442)" fill="#4285f4"/>
      <path id="Path_9337" data-name="Path 9337" d="M214.394,209.108a2.917,2.917,0,1,0,2.917,2.917A2.92,2.92,0,0,0,214.394,209.108Z" transform="translate(-192.374 -190.442)" fill="#34a853"/>
    </g>
  </g>
</svg>
