<svg xmlns="http://www.w3.org/2000/svg" width="8.215" height="8.964" viewBox="0 0 8.215 8.964">
  <path id="Icon_ionic-ios-moon" data-name="Icon ionic-ios-moon" d="M13.126,11.27c-.068,0-.135,0-.2,0a4.115,4.115,0,0,1-2.959-1.246A4.252,4.252,0,0,1,8.738,7.022a4.305,4.305,0,0,1,.408-1.837,6.083,6.083,0,0,1,.317-.546A.092.092,0,0,0,9.373,4.5a4.514,4.514,0,0,0,.688,8.962,4.4,4.4,0,0,0,3.382-1.589,4.263,4.263,0,0,0,.383-.509.094.094,0,0,0-.1-.142A3.986,3.986,0,0,1,13.126,11.27Z" transform="translate(-5.625 -4.496)" fill="#bbc5dd"/>
</svg>
