<svg xmlns="http://www.w3.org/2000/svg" width="10.418" height="10.418" viewBox="0 0 10.418 10.418">
  <g id="Icon_ionic-ios-sunny" data-name="Icon ionic-ios-sunny" transform="translate(-3.375 -3.375)">
    <g id="Group_13059" data-name="Group 13059" transform="translate(3.375 3.375)">
      <path id="Path_9367" data-name="Path 9367" d="M17.3,27.211a.386.386,0,0,0-.386.386v1.157a.386.386,0,0,0,.771,0V27.6A.386.386,0,0,0,17.3,27.211Z" transform="translate(-12.094 -18.721)" fill="#4285f4"/>
      <path id="Path_9368" data-name="Path 9368" d="M17.3,3.375a.386.386,0,0,0-.386.386V4.918a.386.386,0,0,0,.771,0V3.761A.386.386,0,0,0,17.3,3.375Z" transform="translate(-12.094 -3.375)" fill="#4285f4"/>
      <path id="Path_9369" data-name="Path 9369" d="M5.3,17.3a.386.386,0,0,0-.386-.386H3.761a.386.386,0,0,0,0,.771H4.918A.386.386,0,0,0,5.3,17.3Z" transform="translate(-3.375 -12.094)" fill="#4285f4"/>
      <path id="Path_9370" data-name="Path 9370" d="M28.754,16.917H27.6a.386.386,0,0,0,0,.771h1.157a.386.386,0,0,0,0-.771Z" transform="translate(-18.721 -12.094)" fill="#4285f4"/>
      <path id="Path_9371" data-name="Path 9371" d="M8.545,24.195a.385.385,0,0,0-.273.113l-.819.819A.386.386,0,0,0,8,25.672l.819-.819a.386.386,0,0,0-.273-.659Z" transform="translate(-5.928 -16.779)" fill="#4285f4"/>
      <path id="Path_9372" data-name="Path 9372" d="M24.58,8.931a.385.385,0,0,0,.273-.113L25.672,8a.386.386,0,0,0-.546-.546l-.819.819a.386.386,0,0,0,.273.659Z" transform="translate(-16.779 -5.928)" fill="#4285f4"/>
      <path id="Path_9373" data-name="Path 9373" d="M8,7.453A.386.386,0,0,0,7.453,8l.819.819a.386.386,0,0,0,.546-.546Z" transform="translate(-5.928 -5.928)" fill="#4285f4"/>
      <path id="Path_9374" data-name="Path 9374" d="M24.853,24.307a.386.386,0,1,0-.546.546l.819.819a.386.386,0,0,0,.546-.546Z" transform="translate(-16.779 -16.779)" fill="#4285f4"/>
    </g>
    <path id="Path_9375" data-name="Path 9375" d="M13.654,11.25a2.4,2.4,0,1,0,2.4,2.4,2.408,2.408,0,0,0-2.4-2.4Z" transform="translate(-5.07 -5.07)" fill="#4285f4"/>
  </g>
</svg>
