<svg xmlns="http://www.w3.org/2000/svg" width="22.798" height="32.753" viewBox="0 0 22.798 32.753">
  <g id="Group_13064" data-name="Group 13064" transform="translate(-21.383 -13.882)">
    <g id="Google_mic" transform="translate(21.383 13.882)">
      <path id="Path_9326" data-name="Path 9326" d="M89.593,21.208A4.891,4.891,0,0,1,84.7,16.315V4.893a4.893,4.893,0,1,1,9.786,0V16.315A4.891,4.891,0,0,1,89.593,21.208Z" transform="translate(-78.194)" fill="#4285f4"/>
      <rect id="Rectangle_2796" data-name="Rectangle 2796" width="3.265" height="5.984" transform="translate(9.771 26.769)" fill="#34a853"/>
      <path id="Path_9327" data-name="Path 9327" d="M59.546,213.108a8.169,8.169,0,0,1-13.965,5.753L43.3,221.142A11.4,11.4,0,0,0,62.772,213.1H59.546Z" transform="translate(-39.974 -196.731)" fill="#ea4335"/>
      <path id="Path_9328" data-name="Path 9328" d="M5.607,218.953A8.142,8.142,0,0,1,3.226,213.2H0a11.358,11.358,0,0,0,3.326,8.035Z" transform="translate(0 -196.823)" fill="#fbbc05"/>
    </g>
  </g>
</svg>
