<svg xmlns="http://www.w3.org/2000/svg" width="34.19" height="24.04" viewBox="0 0 34.19 24.04">
  <path id="Icon_awesome-youtube" data-name="Icon awesome-youtube" d="M34.526,8.261A4.3,4.3,0,0,0,31.5,5.219C28.837,4.5,18.145,4.5,18.145,4.5s-10.692,0-13.358.719A4.3,4.3,0,0,0,1.764,8.261a45.067,45.067,0,0,0-.714,8.283,45.067,45.067,0,0,0,.714,8.283,4.232,4.232,0,0,0,3.023,2.994c2.666.719,13.358.719,13.358.719s10.692,0,13.358-.719a4.232,4.232,0,0,0,3.023-2.994,45.067,45.067,0,0,0,.714-8.283,45.067,45.067,0,0,0-.714-8.283ZM14.648,21.628V11.461l8.936,5.084-8.936,5.084Z" transform="translate(-1.05 -4.5)" fill="#ea4335"/>
</svg>
